<?xml version="1.0" encoding="UTF-8" standalone="no"?>
<svg version="1.1" width="101.33333" height="92" viewBox="0 0 101.33333 92" xmlns="http://www.w3.org/2000/svg" xmlns:svg="http://www.w3.org/2000/svg" fill="#ffffff">
<path d="m 98.327333,74.333333 c -66.527281,-50.0812 -33.26364,-25.0406 0,0 z" />
<path d="M 43.901261,89.513631 C 42.045568,88.258798 0.68323964,30.531071 0.68323964,29.195989 c 0,-1.842315 3.94378896,-4.302147 5.77246296,-3.600419 0.993533,0.381255 10.1476634,12.393253 20.3425134,26.693332 10.194851,14.300079 18.901512,25.7743 19.348137,25.498271 0.446624,-0.27603 9.02366,-11.915376 19.060077,-25.865216 C 84.99814,24.413021 91.283748,19.079263 95.256969,26.332256 l 1.123851,3.820586 1.327519,29.371652 c 1.184797,26.213893 0.1244,29.46146 -1.835665,30.213608 -5.246065,2.013104 -5.856104,-0.988259 -5.856104,-28.811757 0,-16.458394 -0.489389,-26.444918 -1.282464,-26.170074 C 88.02875,35.000715 79.281969,46.600715 69.296812,60.534049 46.529472,92.303702 47.086802,91.667717 43.901261,89.513631 Z M 85.398525,11.921108 C 82.314843,8.5136762 83.634273,2.9548192 87.998736,0.96623618 94.935576,-2.1943988 101.31566,7.0444852 95.921332,12.438811 93.054221,15.305922 88.247738,15.069453 85.398525,11.921108 Z" />
</svg>
